<?xml version="1.0" encoding="iso-8859-1"?>
<!-- Uploaded to: SVG Repo, www.svgrepo.com, Generator: SVG Repo Mixer Tools -->
<svg height="800px" width="800px" version="1.1" id="Layer_1" xmlns="http://www.w3.org/2000/svg" xmlns:xlink="http://www.w3.org/1999/xlink" 
	 viewBox="0 0 511.997 511.997" xml:space="preserve">
<polyline style="fill:#CEE8FA;" points="255.999,190.389 374.832,229.504 255.999,13.671 "/>
<path style="fill:#2D527C;" d="M385.407,238.158c0.395-0.483,0.752-0.988,1.075-1.515c0.06-0.098,0.115-0.2,0.172-0.301
	c0.275-0.477,0.524-0.967,0.738-1.471c0.033-0.077,0.071-0.149,0.103-0.226c0.223-0.548,0.402-1.113,0.551-1.684
	c0.036-0.134,0.066-0.268,0.096-0.403c0.13-0.565,0.234-1.135,0.291-1.713c0.001-0.019,0.007-0.038,0.008-0.059
	c0.057-0.606,0.063-1.218,0.038-1.831c-0.004-0.118-0.011-0.234-0.019-0.351c-0.079-1.21-0.321-2.418-0.734-3.598
	c-0.046-0.131-0.094-0.261-0.144-0.391c-0.221-0.577-0.47-1.147-0.776-1.703L267.974,7.077c-0.275-0.499-0.584-0.965-0.909-1.416
	c-0.087-0.12-0.18-0.235-0.271-0.354c-0.268-0.346-0.55-0.677-0.845-0.991c-0.089-0.094-0.175-0.191-0.267-0.283
	c-0.786-0.79-1.656-1.47-2.588-2.036c-0.119-0.072-0.239-0.138-0.36-0.206c-0.375-0.212-0.756-0.405-1.148-0.58
	c-0.122-0.055-0.239-0.113-0.364-0.164c-0.496-0.205-1.001-0.384-1.516-0.529c-0.101-0.029-0.206-0.048-0.309-0.074
	c-0.435-0.112-0.875-0.201-1.319-0.271c-0.149-0.023-0.297-0.044-0.447-0.063c-0.522-0.063-1.047-0.104-1.576-0.107
	c-0.019,0-0.038-0.004-0.057-0.004c-0.004,0-0.008,0.001-0.014,0.001c-0.567,0-1.136,0.044-1.705,0.115
	c-0.116,0.015-0.23,0.036-0.346,0.053c-0.448,0.068-0.894,0.16-1.338,0.275c-0.123,0.031-0.245,0.059-0.366,0.094
	c-0.962,0.278-1.911,0.653-2.826,1.158c-0.071,0.04-0.135,0.086-0.205,0.127c-0.145,0.083-0.284,0.175-0.427,0.264
	c-0.344,0.215-0.675,0.44-0.994,0.679c-0.124,0.093-0.249,0.186-0.369,0.283c-0.409,0.329-0.8,0.675-1.162,1.044
	c-0.015,0.015-0.033,0.029-0.048,0.045c-0.398,0.407-0.76,0.841-1.099,1.289c-0.068,0.09-0.13,0.183-0.196,0.275
	c-0.273,0.381-0.526,0.775-0.757,1.18c-0.038,0.067-0.087,0.126-0.124,0.194L125.19,222.911c-2.71,4.923-2.133,11.001,1.456,15.325
	c3.589,4.323,9.456,6.012,14.793,4.254l80.319-26.437c7.172-2.361,11.072-10.088,8.711-17.259
	c-2.361-7.172-10.089-11.071-17.259-8.711l-47.306,15.571l90.096-163.638l90.096,163.637l-76.424-25.156v-69.904
	c0-7.55-6.122-13.671-13.671-13.671c-7.55,0-13.671,6.12-13.671,13.671v79.549c0,0.027,0,0.056,0,0.083v0.164
	c0,0.103,0.014,0.204,0.015,0.306c0.007,0.331,0.019,0.66,0.049,0.987c0.016,0.172,0.045,0.34,0.067,0.511
	c0.036,0.265,0.07,0.532,0.122,0.793c0.042,0.221,0.1,0.439,0.152,0.656c0.051,0.204,0.097,0.409,0.157,0.61
	c0.072,0.249,0.159,0.489,0.246,0.731c0.06,0.168,0.118,0.338,0.185,0.504c0.1,0.246,0.211,0.485,0.324,0.725
	c0.075,0.16,0.149,0.32,0.23,0.477c0.116,0.223,0.243,0.439,0.37,0.655c0.1,0.168,0.198,0.336,0.305,0.5
	c0.122,0.187,0.253,0.368,0.384,0.548c0.131,0.183,0.264,0.365,0.405,0.541c0.122,0.152,0.25,0.297,0.379,0.443
	c0.165,0.189,0.331,0.377,0.507,0.558c0.123,0.126,0.253,0.245,0.38,0.366c0.193,0.182,0.386,0.364,0.589,0.535
	c0.137,0.115,0.279,0.221,0.42,0.331c0.204,0.159,0.406,0.316,0.619,0.463c0.172,0.119,0.353,0.228,0.53,0.34
	c0.19,0.119,0.377,0.239,0.576,0.35c0.235,0.131,0.477,0.247,0.72,0.365c0.153,0.074,0.302,0.153,0.459,0.221
	c0.305,0.134,0.619,0.249,0.935,0.361c0.093,0.033,0.179,0.075,0.273,0.105l0.149,0.049c0.03,0.01,0.06,0.021,0.09,0.03
	l118.593,39.036c0.182,0.06,0.365,0.104,0.548,0.156c0.1,0.029,0.197,0.059,0.298,0.085c0.504,0.131,1.01,0.231,1.519,0.303
	c0.105,0.015,0.211,0.025,0.316,0.037c0.517,0.062,1.035,0.101,1.55,0.103c0.019,0,0.037,0.004,0.056,0.004
	c0.13,0,0.261-0.021,0.392-0.025c0.387-0.011,0.775-0.027,1.158-0.071c0.23-0.026,0.458-0.075,0.688-0.113
	c0.295-0.049,0.592-0.097,0.883-0.167c0.23-0.055,0.457-0.124,0.685-0.191c0.298-0.086,0.592-0.178,0.883-0.284
	c0.209-0.077,0.414-0.161,0.621-0.249c0.317-0.134,0.629-0.282,0.936-0.44c0.111-0.057,0.224-0.097,0.334-0.157
	c0.085-0.046,0.161-0.104,0.246-0.152c0.19-0.111,0.376-0.228,0.562-0.347c0.231-0.149,0.458-0.302,0.677-0.463
	c0.159-0.116,0.314-0.237,0.469-0.36c0.241-0.193,0.472-0.392,0.697-0.599c0.124-0.113,0.247-0.227,0.368-0.346
	c0.249-0.246,0.483-0.502,0.71-0.763c0.064-0.074,0.137-0.139,0.2-0.215C385.372,238.211,385.387,238.182,385.407,238.158z"/>
<polyline style="fill:#CEE8FA;" points="255.999,321.608 137.167,282.493 255.999,498.327 "/>
<g>
	<path style="fill:#2D527C;" d="M385.352,273.762c-3.589-4.323-9.456-6.015-14.795-4.254l-80.319,26.437
		c-7.17,2.361-11.072,10.088-8.711,17.259c2.362,7.173,10.09,11.075,17.261,8.711l47.306-15.571l-90.096,163.638l-90.095-163.637
		l76.424,25.156v69.904c0,7.55,6.12,13.671,13.671,13.671c7.549,0,13.671-6.12,13.671-13.671v-79.544c0-0.033,0-0.066,0-0.098
		v-0.154c0-0.098-0.012-0.193-0.015-0.29c-0.007-0.336-0.019-0.671-0.051-1.005c-0.016-0.169-0.044-0.335-0.066-0.503
		c-0.036-0.268-0.071-0.536-0.122-0.8c-0.042-0.221-0.098-0.437-0.152-0.655c-0.051-0.204-0.097-0.409-0.157-0.611
		c-0.072-0.249-0.16-0.491-0.246-0.733c-0.06-0.168-0.118-0.338-0.185-0.503c-0.1-0.246-0.211-0.485-0.323-0.725
		c-0.075-0.16-0.149-0.321-0.231-0.478c-0.116-0.221-0.242-0.438-0.369-0.652c-0.1-0.169-0.198-0.339-0.306-0.503
		c-0.122-0.187-0.253-0.366-0.383-0.547c-0.133-0.183-0.264-0.365-0.405-0.541c-0.122-0.152-0.249-0.295-0.377-0.442
		c-0.167-0.19-0.334-0.379-0.51-0.561c-0.122-0.124-0.249-0.242-0.376-0.362c-0.194-0.185-0.388-0.366-0.595-0.54
		c-0.134-0.113-0.273-0.217-0.411-0.325c-0.206-0.16-0.411-0.32-0.628-0.469c-0.169-0.116-0.345-0.223-0.52-0.332
		c-0.194-0.122-0.385-0.245-0.586-0.357c-0.23-0.129-0.466-0.242-0.703-0.357c-0.159-0.077-0.313-0.159-0.476-0.23
		c-0.298-0.131-0.606-0.243-0.915-0.353c-0.098-0.036-0.19-0.079-0.29-0.112l-0.157-0.052c-0.026-0.008-0.052-0.018-0.078-0.026
		l-118.598-39.037c-0.094-0.031-0.189-0.052-0.283-0.082c-0.13-0.04-0.261-0.077-0.392-0.113c-0.279-0.077-0.558-0.142-0.839-0.2
		c-0.113-0.023-0.226-0.049-0.339-0.07c-0.396-0.071-0.794-0.13-1.191-0.167c-0.005,0-0.011,0-0.015,0
		c-0.388-0.034-0.775-0.048-1.162-0.049c-0.138,0-0.278,0.005-0.416,0.01c-0.261,0.007-0.521,0.021-0.779,0.042
		c-0.156,0.014-0.31,0.026-0.465,0.045c-0.282,0.033-0.562,0.078-0.839,0.129c-0.115,0.021-0.231,0.036-0.346,0.059
		c-0.376,0.078-0.746,0.176-1.113,0.286c-0.13,0.04-0.26,0.085-0.388,0.127c-0.279,0.092-0.554,0.193-0.826,0.303
		c-0.113,0.046-0.228,0.092-0.342,0.141c-0.761,0.332-1.494,0.735-2.19,1.204c-0.104,0.071-0.205,0.144-0.308,0.216
		c-0.235,0.17-0.466,0.346-0.692,0.53c-0.108,0.089-0.219,0.175-0.324,0.267c-0.267,0.232-0.525,0.474-0.775,0.729
		c-0.12,0.123-0.234,0.252-0.349,0.379c-0.141,0.154-0.284,0.306-0.42,0.469c-0.019,0.023-0.033,0.049-0.052,0.072
		c-0.396,0.484-0.756,0.992-1.08,1.522c-0.059,0.097-0.112,0.195-0.17,0.294c-0.276,0.478-0.526,0.971-0.742,1.476
		c-0.031,0.075-0.071,0.148-0.101,0.223c-0.223,0.548-0.402,1.113-0.551,1.684c-0.036,0.135-0.066,0.269-0.097,0.405
		c-0.13,0.565-0.234,1.135-0.291,1.713c-0.001,0.019-0.007,0.038-0.008,0.059c-0.057,0.607-0.063,1.218-0.038,1.832
		c0.004,0.116,0.011,0.232,0.019,0.35c0.079,1.211,0.321,2.421,0.735,3.604c0.045,0.128,0.092,0.254,0.139,0.381
		c0.223,0.578,0.47,1.151,0.778,1.709l59.417,107.916l59.416,107.916c0.067,0.122,0.152,0.226,0.221,0.343
		c0.249,0.421,0.502,0.838,0.789,1.225c0.249,0.335,0.529,0.636,0.804,0.943c0.131,0.146,0.249,0.309,0.386,0.448
		c0.312,0.32,0.649,0.603,0.987,0.887c0.124,0.105,0.238,0.224,0.366,0.325c0.327,0.256,0.674,0.474,1.02,0.697
		c0.163,0.105,0.314,0.226,0.483,0.323c0.316,0.185,0.648,0.335,0.977,0.493c0.216,0.105,0.424,0.226,0.645,0.319
		c0.309,0.13,0.632,0.224,0.949,0.331c0.254,0.086,0.5,0.187,0.76,0.258c0.377,0.103,0.764,0.165,1.15,0.237
		c0.206,0.037,0.407,0.094,0.615,0.123c0.607,0.082,1.219,0.126,1.835,0.126c0.595,0,1.192-0.045,1.787-0.124
		c0.131-0.018,0.257-0.052,0.387-0.072c0.447-0.072,0.893-0.156,1.336-0.273c0.212-0.057,0.416-0.135,0.625-0.201
		c0.346-0.111,0.692-0.22,1.032-0.36c0.256-0.105,0.499-0.232,0.748-0.351c0.221-0.107,0.448-0.194,0.667-0.313
		c0.071-0.04,0.135-0.086,0.205-0.127c0.145-0.083,0.284-0.175,0.425-0.262c0.344-0.215,0.675-0.44,0.995-0.681
		c0.124-0.093,0.247-0.186,0.369-0.283c0.409-0.329,0.8-0.675,1.162-1.044c0.015-0.016,0.033-0.029,0.048-0.045
		c0.398-0.407,0.759-0.841,1.098-1.289c0.068-0.09,0.131-0.185,0.197-0.276c0.273-0.381,0.525-0.774,0.756-1.178
		c0.038-0.067,0.087-0.127,0.126-0.195l118.833-215.833C389.517,284.164,388.94,278.086,385.352,273.762z"/>
	<path style="fill:#2D527C;" d="M255.999,281.65c-7.55,0-13.671-6.12-13.671-13.671v-23.961c0-7.55,6.12-13.671,13.671-13.671
		c7.549,0,13.671,6.12,13.671,13.671v23.961C269.67,275.529,263.549,281.65,255.999,281.65z"/>
</g>
</svg>